{
  "accessors": [
    {
      "bufferView": 1,
      "componentType": 5126,
      "count": 65532,
      "max": [
        0.8562153577804565,
        0.6144204139709473,
        1.1648677587509155
      ],
      "min": [
        -0.8562189936637878,
        -0.8505871891975403,
        -1.0978258848190308
      ],
      "type": "VEC3"
    },
    {
      "bufferView": 1,
      "byteOffset": 786384,
      "componentType": 5126,
      "count": 65532,
      "max": [
        0.999999463558197,
        0.9999654293060303,
        0.9999991655349731
      ],
      "min": [
        -0.9999993443489075,
        -0.9999860525131226,
        -0.9999788999557495
      ],
      "type": "VEC3"
    },
    {
      "bufferView": 2,
      "componentType": 5126,
      "count": 65532,
      "max": [
        0.7607843279838562,
        0.6666666865348816,
        0.501960813999176,
        1.0
      ],
      "min": [
        0.7607843279838562,
        0.6666666865348816,
        0.501960813999176,
        1.0
      ],
      "type": "VEC4"
    },
    {
      "bufferView": 0,
      "componentType": 5125,
      "count": 347097,
      "type": "SCALAR"
    },
    {
      "bufferView": 1,
      "byteOffset": 1572768,
      "componentType": 5126,
      "count": 46408,
      "max": [
        0.8562153577804565,
        0.6117235422134399,
        1.1648677587509155
      ],
      "min": [
        -0.8559046387672424,
        -0.8505871891975403,
        -1.1120572090148926
      ],
      "type": "VEC3"
    },
    {
      "bufferView": 1,
      "byteOffset": 2129664,
      "componentType": 5126,
      "count": 46408,
      "max": [
        0.9999973773956299,
        0.9999657869338989,
        0.9999991655349731
      ],
      "min": [
        -0.9999977946281433,
        -0.9999860525131226,
        -0.9998722076416016
      ],
      "type": "VEC3"
    },
    {
      "bufferView": 2,
      "byteOffset": 1048512,
      "componentType": 5126,
      "count": 46408,
      "max": [
        0.7607843279838562,
        0.6666666865348816,
        0.501960813999176,
        1.0
      ],
      "min": [
        0.7607843279838562,
        0.6666666865348816,
        0.501960813999176,
        1.0
      ],
      "type": "VEC4"
    },
    {
      "bufferView": 0,
      "byteOffset": 1388388,
      "componentType": 5125,
      "count": 205425,
      "type": "SCALAR"
    }
  ],
  "asset": {
    "extras": {
      "author": "halimi13744 (https://sketchfab.com/halimi13744)",
      "license": "CC-BY-4.0 (http://creativecommons.org/licenses/by/4.0/)",
      "source": "https://sketchfab.com/3d-models/ribcage-d587477df9e34473bd3149fa86b4bb9e",
      "title": "Ribcage"
    },
    "generator": "Sketchfab-11.95.0",
    "version": "2.0"
  },
  "bufferViews": [
    {
      "buffer": 0,
      "byteLength": 2210088,
      "name": "floatBufferViews",
      "target": 34963
    },
    {
      "buffer": 0,
      "byteLength": 2686560,
      "byteOffset": 2210088,
      "byteStride": 12,
      "name": "floatBufferViews",
      "target": 34962
    },
    {
      "buffer": 0,
      "byteLength": 1791040,
      "byteOffset": 4896648,
      "byteStride": 16,
      "name": "floatBufferViews",
      "target": 34962
    }
  ],
  "buffers": [
    {
      "byteLength": 6687688,
      "uri": "scene.bin"
    }
  ],
  "materials": [
    {
      "doubleSided": true,
      "name": "material_0",
      "pbrMetallicRoughness": {
        "baseColorFactor": [
          0.7563736702820036,
          0.7563736702820036,
          0.7563736702820036,
          1.0
        ],
        "metallicFactor": 0.05183542845401261,
        "roughnessFactor": 0.6
      }
    }
  ],
  "meshes": [
    {
      "name": "Object_0",
      "primitives": [
        {
          "attributes": {
            "COLOR_0": 2,
            "NORMAL": 1,
            "POSITION": 0
          },
          "indices": 3,
          "material": 0,
          "mode": 4
        }
      ]
    },
    {
      "name": "Object_1",
      "primitives": [
        {
          "attributes": {
            "COLOR_0": 6,
            "NORMAL": 5,
            "POSITION": 4
          },
          "indices": 7,
          "material": 0,
          "mode": 4
        }
      ]
    }
  ],
  "nodes": [
    {
      "children": [
        1
      ],
      "matrix": [
        1.0,
        0.0,
        0.0,
        0.0,
        0.0,
        2.220446049250313e-16,
        -1.0,
        0.0,
        0.0,
        1.0,
        2.220446049250313e-16,
        0.0,
        0.0,
        0.0,
        0.0,
        1.0
      ],
      "name": "Sketchfab_model"
    },
    {
      "children": [
        2,
        3
      ],
      "name": "Ribcage.obj.cleaner.materialmerger.gles"
    },
    {
      "mesh": 0,
      "name": "Object_2"
    },
    {
      "mesh": 1,
      "name": "Object_3"
    }
  ],
  "scene": 0,
  "scenes": [
    {
      "name": "Sketchfab_Scene",
      "nodes": [
        0
      ]
    }
  ]
}
